<svg width="27" height="24" viewBox="0 0 27 24" fill="none" xmlns="http://www.w3.org/2000/svg">
<g clip-path="url(#clip0_1_83)">
<path d="M19.6961 16.08C18.8742 16.08 18.1388 16.38 17.5764 16.85L9.86539 12.7C9.91947 12.47 9.96273 12.24 9.96273 12C9.96273 11.76 9.91947 11.53 9.86539 11.3L17.4899 7.19C18.0739 7.69 18.8418 8 19.6961 8C21.4914 8 22.9406 6.66 22.9406 5C22.9406 3.34 21.4914 2 19.6961 2C17.9009 2 16.4517 3.34 16.4517 5C16.4517 5.24 16.4949 5.47 16.549 5.7L8.9245 9.81C8.34049 9.31 7.57263 9 6.71826 9C4.92298 9 3.47379 10.34 3.47379 12C3.47379 13.66 4.92298 15 6.71826 15C7.57263 15 8.34049 14.69 8.9245 14.19L16.6247 18.35C16.5706 18.56 16.5382 18.78 16.5382 19C16.5382 20.61 17.9549 21.92 19.6961 21.92C21.4373 21.92 22.8541 20.61 22.8541 19C22.8541 17.39 21.4373 16.08 19.6961 16.08Z" fill="#356EAD"/>
</g>
<defs>
<clipPath id="clip0_1_83">
<rect width="25.9558" height="24" fill="white" transform="translate(0.229309)"/>
</clipPath>
</defs>
</svg>
