<svg width="27" height="24" viewBox="0 0 27 24" fill="none" xmlns="http://www.w3.org/2000/svg">
<g clip-path="url(#clip0_1_98)">
<path d="M19.7334 16.08C18.9132 16.08 18.1794 16.38 17.6182 16.85L9.92381 12.7C9.97776 12.47 10.0209 12.24 10.0209 12C10.0209 11.76 9.97776 11.53 9.92381 11.3L17.5319 7.19C18.1146 7.69 18.8808 8 19.7334 8C21.5248 8 22.9709 6.66 22.9709 5C22.9709 3.34 21.5248 2 19.7334 2C17.942 2 16.4959 3.34 16.4959 5C16.4959 5.24 16.5391 5.47 16.593 5.7L8.98493 9.81C8.40219 9.31 7.63598 9 6.78344 9C4.99204 9 3.54596 10.34 3.54596 12C3.54596 13.66 4.99204 15 6.78344 15C7.63598 15 8.40219 14.69 8.98493 14.19L16.6686 18.35C16.6146 18.56 16.5822 18.78 16.5822 19C16.5822 20.61 17.9959 21.92 19.7334 21.92C21.4708 21.92 22.8845 20.61 22.8845 19C22.8845 17.39 21.4708 16.08 19.7334 16.08Z" fill="#356EAD"/>
</g>
<defs>
<clipPath id="clip0_1_98">
<rect width="25.8999" height="24" fill="white" transform="translate(0.308472)"/>
</clipPath>
</defs>
</svg>
