<svg width="27" height="24" viewBox="0 0 27 24" fill="none" xmlns="http://www.w3.org/2000/svg">
<g clip-path="url(#clip0_1_68)">
<path d="M19.9406 16.08C19.1187 16.08 18.3833 16.38 17.8209 16.85L10.1099 12.7C10.1639 12.47 10.2072 12.24 10.2072 12C10.2072 11.76 10.1639 11.53 10.1099 11.3L17.7344 7.19C18.3184 7.69 19.0862 8 19.9406 8C21.7359 8 23.1851 6.66 23.1851 5C23.1851 3.34 21.7359 2 19.9406 2C18.1453 2 16.6961 3.34 16.6961 5C16.6961 5.24 16.7394 5.47 16.7935 5.7L9.16897 9.81C8.58497 9.31 7.81711 9 6.96273 9C5.16746 9 3.71826 10.34 3.71826 12C3.71826 13.66 5.16746 15 6.96273 15C7.81711 15 8.58497 14.69 9.16897 14.19L16.8692 18.35C16.8151 18.56 16.7827 18.78 16.7827 19C16.7827 20.61 18.1994 21.92 19.9406 21.92C21.6818 21.92 23.0986 20.61 23.0986 19C23.0986 17.39 21.6818 16.08 19.9406 16.08Z" fill="#356EAD"/>
</g>
<defs>
<clipPath id="clip0_1_68">
<rect width="25.9558" height="24" fill="white" transform="translate(0.473785)"/>
</clipPath>
</defs>
</svg>
