<svg width="27" height="24" viewBox="0 0 27 24" fill="none" xmlns="http://www.w3.org/2000/svg">
<path d="M20.1828 16.08C19.3537 16.08 18.612 16.38 18.0448 16.85L10.2674 12.7C10.3219 12.47 10.3655 12.24 10.3655 12C10.3655 11.76 10.3219 11.53 10.2674 11.3L17.9575 7.19C18.5466 7.69 19.321 8 20.1828 8C21.9935 8 23.4552 6.66 23.4552 5C23.4552 3.34 21.9935 2 20.1828 2C18.372 2 16.9103 3.34 16.9103 5C16.9103 5.24 16.954 5.47 17.0085 5.7L9.31836 9.81C8.72932 9.31 7.95485 9 7.09312 9C5.28239 9 3.82071 10.34 3.82071 12C3.82071 13.66 5.28239 15 7.09312 15C7.95485 15 8.72932 14.69 9.31836 14.19L17.0849 18.35C17.0303 18.56 16.9976 18.78 16.9976 19C16.9976 20.61 18.4266 21.92 20.1828 21.92C21.939 21.92 23.3679 20.61 23.3679 19C23.3679 17.39 21.939 16.08 20.1828 16.08Z" fill="#356EAD"/>
</svg>
