<svg width="27" height="24" viewBox="0 0 27 24" fill="none" xmlns="http://www.w3.org/2000/svg">
<path d="M20.4272 16.08C19.5947 16.08 18.8498 16.38 18.2801 16.85L10.4695 12.7C10.5243 12.47 10.5681 12.24 10.5681 12C10.5681 11.76 10.5243 11.53 10.4695 11.3L18.1925 7.19C18.784 7.69 19.5618 8 20.4272 8C22.2457 8 23.7136 6.66 23.7136 5C23.7136 3.34 22.2457 2 20.4272 2C18.6088 2 17.1409 3.34 17.1409 5C17.1409 5.24 17.1847 5.47 17.2394 5.7L9.51645 9.81C8.9249 9.31 8.14712 9 7.28171 9C5.46325 9 3.99533 10.34 3.99533 12C3.99533 13.66 5.46325 15 7.28171 15C8.14712 15 8.9249 14.69 9.51645 14.19L17.3161 18.35C17.2614 18.56 17.2285 18.78 17.2285 19C17.2285 20.61 18.6635 21.92 20.4272 21.92C22.1909 21.92 23.626 20.61 23.626 19C23.626 17.39 22.1909 16.08 20.4272 16.08Z" fill="#356EAD"/>
</svg>
